<svg fill="none" height="450" width="450" xmlns="http://www.w3.org/2000/svg"><path d="M205.18 52h40.64v41.799h-40.64zm-51.09 0h41.801v41.799H154.09zm152.109 0H348v41.799h-41.801zm0 51.087H348v41.799h-41.801zM103 52h41.801v41.799H103zm152.109 0h41.801v41.799h-41.801zM103 103.087h41.801v41.799H103zm203.199 150.94H348v41.798h-41.801zM154.09 305.114h41.801v41.799H154.09zm152.109 0H348v41.799h-41.801zm-51.09-51.087h41.801v41.798h-41.801zM103 305.114h41.801v41.799H103zm102.18 49.926h40.64V398h-40.64zm0-150.939h40.64v41.798h-40.64zm-51.09-51.088h41.801v42.96H154.09zm0 202.027h41.801V398H154.09zm152.109 0H348V398h-41.801zM154.09 204.101h41.801v41.798H154.09zM103 153.013h41.801v42.96H103zm0 202.027h41.801V398H103zm152.109 0h41.801V398h-41.801zm0-150.939h41.801v41.798h-41.801zm0-101.014h41.801v41.799h-41.801z" fill="#262626"/><path d="M42.767 1H1v41.782h41.767zm51.05 0H52.049v41.782h41.768zm151.987 0h-40.608v41.782h40.608zm111.379 0h41.768v41.782h-41.768zM154.147 1h41.768v41.782h-41.768zm193.755 0h-41.768v41.782h41.768zM52.05 52.067h41.767V93.85H52.049zm346.901 0h-41.768V93.85h41.768zM52.05 103.135h41.767v41.782H52.049zm193.754 0h-40.608v41.782h40.608zm111.379 0h41.768v41.782h-41.768zM42.767 52.067H1V93.85h41.767zM1 103.135h41.767v41.782H1zm194.915 0h-41.768v41.782h41.768zM103.098 1h41.768v41.782h-41.768zm193.755 0h-41.768v41.782h41.768zm111.38 0H450v41.782h-41.767zM450 52.067h-41.767V93.85H450zM52.05 254.016h41.767v41.782H52.049zm193.754 0h-40.608v41.782h40.608zm111.379 0h41.768v41.782h-41.768zM93.817 305.083H52.049v41.782h41.768zm111.379 0h40.608v41.782h-40.608zm193.755 0h-41.768v41.782h41.768zM1 254.016h41.767v41.782H1zm194.915 0h-41.768v41.782h41.768zM1 305.083h41.767v41.782H1zm143.866-51.067h-41.768v41.782h41.768zm263.367 0H450v41.782h-41.767zm-111.38 51.067h-41.768v41.782h41.768zm111.38 0H450v41.782h-41.767zM93.817 153.041H52.049v42.943h41.768zm111.379 0h40.608v42.943h-40.608zm193.755 0h-41.768v42.943h41.768zM52.05 354.99h41.767v42.943H52.049zm346.901 0h-41.768v42.943h41.768zM52.05 204.109h41.767v41.782H52.049zm346.901 0h-41.768v41.782h41.768zM52.05 406.057h41.767V449H52.049zm193.754 0h-40.608V449h40.608zm111.379 0h41.768V449h-41.768zM42.767 153.041H1v42.943h41.767zm263.367 0h41.768v42.943h-41.768zM42.767 354.99H1v42.943h41.767zM1 204.109h41.767v41.782H1zm346.902 0h-41.768v41.782h41.768zM1 406.057h41.767V449H1zm194.915 0h-41.768V449h41.768zm110.219 0h41.768V449h-41.768zm-9.281-253.016h-41.768v42.943h41.768zm111.38 0H450v42.943h-41.767zM450 354.99h-41.767v42.943H450zM103.098 204.109h41.768v41.782h-41.768zm346.902 0h-41.767v41.782H450zM103.098 406.057h41.768V449h-41.768zm193.755 0h-41.768V449h41.768zm111.38 0H450V449h-41.767zM450 103.135h-41.767v41.782H450z" fill="#b9d959"/></svg>